<svg xmlns="http://www.w3.org/2000/svg" xmlns:xlink="http://www.w3.org/1999/xlink" version="1.1" x="0px" y="0px" viewBox="0 0 100 100" enable-background="new 0 0 100 100" xml:space="preserve"><path d="M50,53.1c-2.5,0-4.6,2.1-4.6,4.6c0,2,1.3,3.6,3.1,4.3v7.8c0,0.9,0.7,1.6,1.5,1.6c0.9,0,1.5-0.7,1.5-1.6v-7.8  c1.8-0.7,3.1-2.3,3.1-4.3C54.6,55.1,52.5,53.1,50,53.1L50,53.1z M50,5C25.1,5,5,25.1,5,50c0,24.8,20.1,45,45,45  c24.9,0,45-20.2,45-45C95,25.1,74.9,5,50,5L50,5z M71.2,70.7c0,4.2-3.4,7.6-7.6,7.6H36.3c-4.2,0-7.6-3.4-7.6-7.6V52.3  c0-3.4,2.3-6.3,5.4-7.2l-1.3-4c-1.2-3.8-0.9-7.8,1-11.4c1.9-3.5,4.9-6.1,8.7-7.3c3.8-1.2,7.8-0.9,11.4,1c3.5,1.8,6.1,4.9,7.3,8.7  c0.5,1.4-0.4,3-1.8,3.4c-1.5,0.5-2.9-0.3-3.4-1.8c-0.8-2.4-2.4-4.4-4.7-5.5c-2.3-1.2-4.8-1.4-7.2-0.6c-2.4,0.8-4.4,2.4-5.5,4.6  c-1.2,2.3-1.4,4.8-0.7,7.2l1.7,5.3h24c4.2,0,7.6,3.4,7.6,7.6V70.7z"/></svg>