<?xml version="1.0" encoding="UTF-8" standalone="no"?>
<svg
   xmlns:dc="http://purl.org/dc/elements/1.1/"
   xmlns:cc="http://creativecommons.org/ns#"
   xmlns:rdf="http://www.w3.org/1999/02/22-rdf-syntax-ns#"
   xmlns:svg="http://www.w3.org/2000/svg"
   xmlns="http://www.w3.org/2000/svg"
   xmlns:sodipodi="http://sodipodi.sourceforge.net/DTD/sodipodi-0.dtd"
   xmlns:inkscape="http://www.inkscape.org/namespaces/inkscape"
   data-name="Layer 1"
   viewBox="0 0 82.029427 97.998062"
   x="0px"
   y="0px"
   version="1.1"
   id="svg3982"
   sodipodi:docname="user-privacy-icon.svg"
   inkscape:version="0.92.2 (5c3e80d, 2017-08-06)"
   width="82.029427"
   height="97.998062">
  <metadata
     id="metadata3988">
    <rdf:RDF>
      <cc:Work
         rdf:about="">
        <dc:format>image/svg+xml</dc:format>
        <dc:type
           rdf:resource="http://purl.org/dc/dcmitype/StillImage" />
        <dc:title>Artboard 3</dc:title>
      </cc:Work>
    </rdf:RDF>
  </metadata>
  <defs
     id="defs3986" />
  <sodipodi:namedview
     pagecolor="#ffffff"
     bordercolor="#666666"
     borderopacity="1"
     objecttolerance="10"
     gridtolerance="10"
     guidetolerance="10"
     inkscape:pageopacity="0"
     inkscape:pageshadow="2"
     inkscape:window-width="1536"
     inkscape:window-height="897"
     id="namedview3984"
     showgrid="false"
     inkscape:zoom="5.6"
     inkscape:cx="41.014713"
     inkscape:cy="36.498306"
     inkscape:window-x="-8"
     inkscape:window-y="-8"
     inkscape:window-maximized="1"
     inkscape:current-layer="svg3982"
     fit-margin-top="0"
     fit-margin-left="0"
     fit-margin-right="0"
     fit-margin-bottom="0" />
  <title
     id="title3974">Artboard 3</title>
  <path
     d="m 40.194713,97.859756 a 2.5,2.5 0 0 0 1.64,0 c 41.18,-14.28 40.56,-48.27 40.09,-73.09 -0.05,-2.7 -0.1,-5.26 -0.1,-7.74 a 2.5,2.5 0 0 0 -2.5,-2.5 c -15.25,0 -26.87,-4.39 -36.56,-13.8200004 a 2.5,2.5 0 0 0 -3.49,0 c -9.7,9.4300004 -21.31,13.8200004 -36.5599999,13.8200004 a 2.5,2.5 0 0 0 -2.51,2.47 c 0,2.48 0,5 -0.1,7.74 -0.47,24.85 -1.09,58.84 40.0899999,73.12 z m 0.82,-5 c -10.19,-3.66 -17.51,-8.62 -22.78,-14.39 a 39.62,39.62 0 0 1 13,-5.91 3.14,3.14 0 0 0 2.38,-3.05 v -6.82 a 3.86,3.86 0 0 0 -0.76,-2.3 17.94,17.94 0 0 1 -3.06,-8.27 2.5,2.5 0 0 0 -1.05,-1.76 6.69,6.69 0 0 1 -2.87,-5.47 1.13,1.13 0 0 1 0.35,-0.83 1.16,1.16 0 0 1 0.85,-0.33 2.5,2.5 0 0 0 2.6,-2.47 l 0.07,-6.43 a 11.09,11.09 0 0 1 0.76,-4.08 c 1.56,-3.82 5.49,-7.94 10.44,-7.94 h 0.95 v 1.92 a 2.5,2.5 0 0 0 2.24,2.49 11.26,11.26 0 0 1 7.68,4.85 6.16,6.16 0 0 1 1.16,3.6 v 5.55 a 2.5,2.5 0 0 0 2.5,2.5 v 0 a 1.18,1.18 0 0 1 0.83,0.35 1.12,1.12 0 0 1 0.33,0.81 6.7,6.7 0 0 1 -2.76,5.39 2.5,2.5 0 0 0 -1,1.74 17.81,17.81 0 0 1 -3.18,8.49 3.91,3.91 0 0 0 -0.79,2.34 v 6.75 a 3.15,3.15 0 0 0 2.35,3 39.67,39.67 0 0 1 12.59,5.82 c -5.32,5.83 -12.64,10.79 -22.83,14.44 z m -35.8999999,-68 c 0,-1.85 0.07,-3.63 0.09,-5.37 14.5499999,-0.44 25.9999999,-4.79 35.8199999,-13.5700004 9.78,8.7800004 21.27,13.1300004 35.82,13.5700004 0,1.74 0.05,3.52 0.09,5.37 0.31,16.21 0.66,35 -10,49.72 a 44.62,44.62 0 0 0 -13.1,-6.38 v -5 a 22.64,22.64 0 0 0 3.79,-9.61 11.71,11.71 0 0 0 3.95,-8.73 6.11,6.11 0 0 0 -1.8,-4.35 6.21,6.21 0 0 0 -1.87,-1.28 v -3.54 a 11,11 0 0 0 -2.11,-6.54 16.84,16.84 0 0 0 -9,-6.46 v -2.37 a 2.5,2.5 0 0 0 -2.5,-2.5 h -3.38 c -7.3,0 -12.83,5.55 -15.07,11.05 a 16,16 0 0 0 -1.13,5.91 v 4.42 a 6.2,6.2 0 0 0 -1.94,1.26 6.1,6.1 0 0 0 -1.88,4.43 11.68,11.68 0 0 0 4.1,8.87 22.32,22.32 0 0 0 3.64,9.29 v 5 a 44.6,44.6 0 0 0 -13.52,6.5 c -10.6599999,-14.67 -10.3199999,-33.48 -10.0099999,-49.69 z"
     id="path3976"
     inkscape:connector-curvature="0" />
</svg>
